<?xml version="1.0" encoding="UTF-8" standalone="no"?>
<!-- Created with Inkscape (http://www.inkscape.org/) -->

<svg
   version="1.1"
   id="svg1"
   width="50"
   height="50"
   viewBox="0 0 497 293"
   sodipodi:docname="heart-unliked.svg"
   inkscape:version="1.3.2 (091e20ef0f, 2023-11-25)"
   xmlns:inkscape="http://www.inkscape.org/namespaces/inkscape"
   xmlns:sodipodi="http://sodipodi.sourceforge.net/DTD/sodipodi-0.dtd"
   xmlns:xlink="http://www.w3.org/1999/xlink"
   xmlns="http://www.w3.org/2000/svg"
   xmlns:svg="http://www.w3.org/2000/svg">
  <defs
     id="defs1">
    <linearGradient
       id="linearGradient23"
       inkscape:collect="always">
      <stop
         style="stop-color:#000000;stop-opacity:1;"
         offset="0"
         id="stop23" />
      <stop
         style="stop-color:#000000;stop-opacity:0;"
         offset="1"
         id="stop24" />
    </linearGradient>
    <linearGradient
       inkscape:collect="always"
       xlink:href="#linearGradient23"
       id="linearGradient24"
       x1="108.28243"
       y1="143.03383"
       x2="403.14655"
       y2="143.03383"
       gradientUnits="userSpaceOnUse" />
    <linearGradient
       inkscape:collect="always"
       xlink:href="#linearGradient23"
       id="linearGradient27"
       gradientUnits="userSpaceOnUse"
       x1="108.28243"
       y1="143.03383"
       x2="403.14655"
       y2="143.03383"
       gradientTransform="translate(16.038312,425.03565)" />
  </defs>
  <sodipodi:namedview
     id="namedview1"
     pagecolor="#505050"
     bordercolor="#eeeeee"
     borderopacity="1"
     inkscape:showpageshadow="0"
     inkscape:pageopacity="0"
     inkscape:pagecheckerboard="0"
     inkscape:deskcolor="#505050"
     showgrid="false"
     inkscape:zoom="0.96227364"
     inkscape:cx="289.41871"
     inkscape:cy="307.08521"
     inkscape:window-width="1279"
     inkscape:window-height="1416"
     inkscape:window-x="0"
     inkscape:window-y="0"
     inkscape:window-maximized="0"
     inkscape:current-layer="g21" />
  <g
     inkscape:groupmode="layer"
     inkscape:label="Image"
     id="g1">
    <g
       id="g16">
      <g
         id="g20"
         style="fill:#000000;fill-opacity:1;stroke:url(#linearGradient24)">
        <g
           id="g21"
           style="fill:#000000;fill-opacity:1;stroke:url(#linearGradient24)">
          <path
             style="fill:#000000;fill-opacity:1;fill-rule:nonzero;stroke:url(#linearGradient24)"
             d="M 243.72465,267.56577 C 237.11241,264.56595 128.53197,155.86358 122.41091,146.1158 112.16815,129.8042 108.07593,114.54832 108.88053,95.674271 c 0.55148,-12.93641 3.71314,-24.316881 9.91813,-35.700475 19.98638,-36.666799 64.96953,-52.973378 103.84789,-37.645289 8.50379,3.352681 18.38627,9.213217 24,14.232543 2.475,2.212936 4.98406,4.030549 5.57569,4.03914 0.59163,0.0086 2.16663,-1.148007 3.5,-2.570219 3.46774,-3.698782 14.72527,-10.997571 22.1077,-14.33347 9.48635,-4.286592 18.11585,-6.21504 30.31661,-6.774897 14.66762,-0.673054 27.24427,1.912018 40.37198,8.298273 l 9.39713,4.57144 6.11545,-5.983887 c 9.52115,-9.316324 8.55827,-9.566683 24.6926,6.420388 8.22704,8.151943 13.92284,14.577529 13.92284,15.706714 0,1.051024 -3.45638,5.462713 -7.68084,9.803754 l -7.68085,7.892802 2.05232,5.242361 c 4.01362,10.252177 6.31896,22.087592 6.29624,32.324261 -0.0157,7.05558 -2.9451,21.72495 -5.89193,29.50428 -3.88299,10.25073 -16.06613,24.56025 -19.76789,28.95947 -3.13271,3.72296 -20.82518,13.35172 -22.16653,10.40779 -1.24192,-2.72573 13.29512,-17.42834 19.86456,-25.45345 11.66366,-14.2481 17.0935,-33.39356 15.00688,-52.913789 -0.5048,-4.72241 -1.65884,-10.71794 -2.56453,-13.323409 -1.4822,-4.263949 -1.84687,-4.630089 -3.65021,-3.664969 -1.10192,0.589732 -3.15192,0.784004 -4.55554,0.431716 -3.57405,-0.897028 -28.26168,-25.882046 -28.26168,-28.602116 0,-1.165275 0.92846,-3.422578 2.06324,-5.016228 1.13478,-1.59365 1.80145,-3.32112 1.48149,-3.838821 -0.92608,-1.498434 -15.4421,-6.770258 -22.37589,-8.126319 -3.983,-0.778965 -10.10269,-1.024106 -16.5,-0.660952 -18.0558,1.024966 -31.63569,6.825655 -46.07024,19.679023 -4.5467,4.048653 -8.80755,7.035874 -10.03568,7.035874 -1.21784,0 -6.09429,-3.382241 -11.35675,-7.87689 -9.54699,-8.15405 -18.97657,-13.454471 -29.70617,-16.698012 -9.32753,-2.8197 -28.68853,-2.605324 -38.5,0.426295 -18.63324,5.757437 -35.55606,19.402641 -43.45208,35.036271 -5.83205,11.547094 -7.85294,19.705817 -7.95412,32.112337 -0.0531,6.514989 0.50033,14.100859 1.2768,17.499989 1.8115,7.93018 9.11541,22.75583 14.28696,29 7.87386,9.50698 110.96592,111.49288 113.29239,112.07679 1.33193,0.3343 3.73902,-0.14027 5.60449,-1.10494 1.79841,-0.92999 15.13422,-13.70668 29.8577,-28.16757 77.24316,-75.86555 61.64385,-58.36317 63.64545,-60.55428 14.04567,-15.37544 19.60222,-10.6476 19.60222,-7.29559 0,1.59236 -26.96021,28.16493 -59.50257,60.70543 -39.868,39.86571 -45.93528,45.55205 -50.25,47.09511 -6.29729,2.25206 -9.8486,2.1814 -15.32914,-0.30498 z M 380.87146,53.89263 c 3.7263,-3.69775 6.77509,-7.374221 6.77509,-8.169938 0,-0.795716 -3.22535,-4.546669 -7.16745,-8.335451 l -7.16746,-6.888695 -7.33254,7.283604 c -4.0329,4.005983 -7.33255,7.78354 -7.33255,8.394571 0,1.254671 13.35662,14.439089 14.62768,14.439089 0.45217,0 3.87093,-3.025431 7.59723,-6.72318 z m -59.37699,73.97317 c -1.38944,-1.5125 -4.57011,-5.45 -7.06815,-8.75 -5.1194,-6.76291 -8.75332,-10.23771 -17.92434,-17.1395 -7.49165,-5.637939 -7.82015,-6.038759 -7.84011,-9.566149 -0.0126,-2.22632 1.65672,-4.03678 9.42274,-10.21936 5.19092,-4.132546 11.73256,-10.340001 14.53696,-13.794349 2.8044,-3.454347 6.45768,-7.968132 8.11841,-10.030632 4.90431,-6.090791 7.66138,-5.209026 14.85216,4.75 6.20604,8.595196 10.45132,12.824935 19.78128,19.708841 12.26279,9.04783 12.20971,10.64116 -0.67283,20.196639 -8.53328,6.32947 -14.93274,13.06898 -21.78343,22.94091 -3.92434,5.65503 -7.43848,6.24066 -11.42269,1.9036 z m 6.15208,-15.3723 c 0,-0.61727 4.26884,-5.31548 9.4863,-10.44048 l 9.48629,-9.318169 -10.44527,-10.5215 -10.44527,-10.521503 -1.95353,2.711981 c -2.10966,2.928731 -12.16129,12.965312 -15.96991,15.946002 l -2.3414,1.83241 10.3414,10.619739 c 10.2846,10.56142 11.84139,11.83557 11.84139,9.69152 z"
             id="path16"
             sodipodi:nodetypes="ssssssssssscsssscssssssssssssssssssssscssssssssssssscsssssssssssssssssscccsscss" />
          <path
             style="fill:none;fill-opacity:1;fill-rule:nonzero;stroke:none;stroke-width:0"
             d="m 244.63684,251.37323 c -15.05453,-14.03863 -79.44033,-77.7044 -97.38487,-96.29581 -11.49292,-11.90722 -13.33566,-14.3598 -18.103,-24.09411 -5.24443,-10.70847 -6.31925,-14.5022 -7.0023,-24.71545 -0.72712,-10.872358 0.26407,-20.321986 2.99571,-28.559899 1.47633,-4.452212 5.5585,-12.847987 8.02192,-16.498617 8.74399,-12.958024 22.66894,-23.35224 38.21661,-28.526605 6.44072,-2.143513 11.03834,-2.721657 21.69547,-2.728169 11.9577,-0.0073 15.79797,0.635791 24.37957,4.082642 7.67665,3.08337 14.47855,7.317834 23.2717,14.487576 6.16345,5.025549 10.14511,7.689647 11.49266,7.689647 1.24197,0 4.43332,-2.043718 8.27665,-5.300323 5.63693,-4.776397 10.00793,-8.184422 13.15592,-10.257533 7.02356,-4.625378 15.72259,-8.188853 23.78935,-9.74509 9.12547,-1.760481 21.66407,-1.944379 28.4528,-0.417304 4.12433,0.927737 14.13948,4.290347 17.94913,6.026464 3.28043,1.494937 3.2706,1.451813 1.13859,4.997201 -1.81134,3.012134 -2.22668,4.744294 -1.48261,6.183162 1.04307,2.01708 6.02497,7.665029 12.68922,14.385686 7.44984,7.512893 12.73524,12.185646 15.05177,13.307058 1.6503,0.798899 2.62859,0.755008 6.14688,-0.275788 0.68918,-0.201917 0.88722,0.03425 1.57884,1.882757 2.58117,6.898801 3.99575,18.898679 3.31014,28.079855 -1.09356,14.64403 -6.3379,28.32298 -14.90792,38.88471 -0.92917,1.14511 -4.03292,4.7274 -6.89722,7.96065 -6.0802,6.86337 -10.0223,11.56871 -11.30973,13.49941 -0.50417,0.7561 -2.80232,3.07081 -5.10699,5.1438 -6.66837,5.99803 -23.10035,21.80083 -49.57329,47.67513 -9.40728,9.19455 -20.65431,20.12561 -24.9934,24.29124 -13.60879,13.06482 -14.67518,13.89496 -17.87072,13.91181 -1.46353,0.008 -1.77098,-0.21577 -6.98088,-5.0741 z m 83.641,-120.41243 c 1.74938,-0.50771 3.06158,-1.85325 7.20766,-7.39078 6.3981,-8.54536 11.41555,-13.67749 19.43701,-19.88127 6.22656,-4.815617 7.92579,-6.339943 9.05864,-8.126269 2.49542,-3.93487 1.08843,-6.160742 -8.50752,-13.458992 -9.25622,-7.039869 -12.46421,-10.24047 -19.26876,-19.224379 -5.28278,-6.974737 -7.3882,-8.869163 -9.85699,-8.869163 -2.70667,0 -3.73031,0.922599 -11.0067,9.920194 -5.30261,6.55694 -10.71852,11.956193 -18.28647,18.230224 -8.42807,6.987098 -9.66082,8.695921 -8.85631,12.276531 0.45321,2.017062 1.90097,3.483774 8.20765,8.315084 9.37764,7.18386 12.22413,9.97107 18.76887,18.378 5.96663,7.66431 7.3061,9.0232 9.74899,9.89037 1.32083,0.46886 1.54707,0.46485 3.35393,-0.0596 z"
             id="path25" />
          <path
             style="fill:#efde00;fill-opacity:1;fill-rule:nonzero;stroke:none;stroke-width:0"
             d="m 316.42203,102.19412 -9.30943,-9.677483 9.54459,-9.544588 9.54459,-9.544587 9.55168,9.55168 9.55168,9.55168 -9.15307,9.397898 c -5.03419,5.16885 -9.43827,9.52053 -9.78684,9.6704 -0.34858,0.14987 -4.82301,-4.08238 -9.9432,-9.405 z"
             id="path26" />
          <path
             style="fill:#efde00;fill-opacity:1;fill-rule:nonzero;stroke:none;stroke-width:0"
             d="m 366.02758,53.229145 c -3.26859,-3.303062 -5.9429,-6.473158 -5.9429,-7.044659 0,-0.5715 3.04429,-4.056318 6.76508,-7.744039 l 6.76508,-6.704947 6.98453,6.984525 6.98452,6.984524 -6.70494,6.765081 c -3.68773,3.720794 -7.20074,6.76508 -7.80671,6.76508 -0.60597,0 -3.77606,-2.702505 -7.04466,-6.005565 z"
             id="path27" />
          <path
             style="fill:#000000;fill-opacity:1;fill-rule:nonzero;stroke:url(#linearGradient27)"
             d="M 259.76296,692.60142 C 253.15072,689.6016 144.57028,580.89923 138.44922,571.15145 c -10.24276,-16.3116 -14.33498,-31.56748 -13.53038,-50.44153 0.55148,-12.93641 3.71314,-24.31688 9.91813,-35.70047 19.98638,-36.6668 64.96953,-52.97338 103.84789,-37.64529 8.50379,3.35268 18.38627,9.21321 24,14.23254 2.475,2.21294 4.98406,4.03055 5.57569,4.03914 0.59163,0.009 2.16663,-1.14801 3.5,-2.57022 3.46774,-3.69878 14.72527,-10.99757 22.1077,-14.33347 9.48635,-4.28659 18.11585,-6.21504 30.31661,-6.7749 14.66762,-0.67305 27.24427,1.91202 40.37198,8.29828 l 9.39713,4.57144 6.11545,-5.98389 c 9.52115,-9.31632 8.55827,-9.56668 24.6926,6.42039 8.22704,8.15194 13.92284,14.57753 13.92284,15.70671 0,1.05103 -3.45638,5.46272 -7.68084,9.80376 l -7.68085,7.8928 2.05232,5.24236 c 4.01362,10.25218 6.31896,22.08759 6.29624,32.32426 -0.0157,7.05558 -2.9451,21.72495 -5.89193,29.50428 -3.88299,10.25073 -16.06613,24.56025 -19.76789,28.95947 -3.13271,3.72296 -20.82518,13.35172 -22.16653,10.40779 -1.24192,-2.72573 13.29512,-17.42834 19.86456,-25.45345 11.66366,-14.2481 17.0935,-33.39356 15.00688,-52.91379 -0.5048,-4.72241 -1.65884,-10.71794 -2.56453,-13.32341 -1.4822,-4.26395 -1.84687,-4.63009 -3.65021,-3.66497 -1.10192,0.58974 -3.15192,0.78401 -4.55554,0.43172 -3.57405,-0.89703 -28.26168,-25.88205 -28.26168,-28.60212 0,-1.16527 0.92846,-3.42258 2.06324,-5.01623 1.13478,-1.59364 1.80145,-3.32112 1.48149,-3.83882 -0.92608,-1.49843 -15.4421,-6.77025 -22.37589,-8.12632 -3.983,-0.77896 -10.10269,-1.0241 -16.5,-0.66095 -18.0558,1.02497 -31.63569,6.82566 -46.07024,19.67903 -4.5467,4.04865 -8.80755,7.03587 -10.03568,7.03587 -1.21784,0 -6.09429,-3.38224 -11.35675,-7.87689 -9.54699,-8.15405 -18.97657,-13.45447 -29.70617,-16.69801 -9.32753,-2.8197 -28.68853,-2.60533 -38.5,0.42629 -18.63324,5.75744 -35.55606,19.40264 -43.45208,35.03627 -5.83205,11.5471 -7.85294,19.70582 -7.95412,32.11234 -0.0531,6.51499 0.50033,14.10086 1.2768,17.49999 1.8115,7.93018 9.11541,22.75583 14.28696,29 7.87386,9.50698 110.96592,111.49288 113.29239,112.07679 1.33193,0.3343 3.73902,-0.14027 5.60449,-1.10494 1.79841,-0.92999 15.13422,-13.70668 29.8577,-28.16757 77.24316,-75.86555 61.64385,-58.36317 63.64545,-60.55428 14.04567,-15.37544 19.60222,-10.6476 19.60222,-7.29559 0,1.59236 -26.96021,28.16493 -59.50257,60.70543 -39.868,39.86571 -45.93528,45.55205 -50.25,47.09511 -6.29729,2.25206 -9.8486,2.1814 -15.32914,-0.30498 z M 396.90977,478.92828 c 3.7263,-3.69775 6.77509,-7.37422 6.77509,-8.16994 0,-0.79571 -3.22535,-4.54667 -7.16745,-8.33545 l -7.16746,-6.88869 -7.33254,7.2836 c -4.0329,4.00598 -7.33255,7.78354 -7.33255,8.39457 0,1.25467 13.35662,14.43909 14.62768,14.43909 0.45217,0 3.87093,-3.02543 7.59723,-6.72318 z m -59.37699,73.97317 c -1.38944,-1.5125 -4.57011,-5.45 -7.06815,-8.75 -5.1194,-6.76291 -8.75332,-10.23771 -17.92434,-17.1395 -7.49165,-5.63794 -7.82015,-6.03876 -7.84011,-9.56615 -0.0126,-2.22632 1.65672,-4.03678 9.42274,-10.21936 5.19092,-4.13255 11.73256,-10.34 14.53696,-13.79435 2.8044,-3.45434 6.45768,-7.96813 8.11841,-10.03063 4.90431,-6.09079 7.66138,-5.20903 14.85216,4.75 6.20604,8.5952 10.45132,12.82494 19.78128,19.70884 12.26279,9.04783 12.20971,10.64116 -0.67283,20.19664 -8.53328,6.32947 -14.93274,13.06898 -21.78343,22.94091 -3.92434,5.65503 -7.43848,6.24066 -11.42269,1.9036 z m 6.15208,-15.3723 c 0,-0.61727 4.26884,-5.31548 9.4863,-10.44048 l 9.48629,-9.31817 -10.44527,-10.5215 -10.44527,-10.5215 -1.95353,2.71198 c -2.10966,2.92873 -12.16129,12.96531 -15.96991,15.946 l -2.3414,1.83241 10.3414,10.61974 c 10.2846,10.56142 11.84139,11.83557 11.84139,9.69152 z"
             id="path16-6"
             sodipodi:nodetypes="ssssssssssscsssscssssssssssssssssssssscssssssssssssscsssssssssssssssssscccsscss" />
          <path
             style="fill:#b10000;fill-opacity:1;fill-rule:nonzero;stroke:none;stroke-width:0"
             d="m 260.67515,676.40888 c -15.05453,-14.03863 -79.44033,-77.7044 -97.38487,-96.29581 -11.49292,-11.90722 -13.33566,-14.3598 -18.103,-24.09411 -5.24443,-10.70847 -6.31925,-14.5022 -7.0023,-24.71545 -0.72712,-10.87236 0.26407,-20.32199 2.99571,-28.5599 1.47633,-4.45221 5.5585,-12.84799 8.02192,-16.49862 8.74399,-12.95802 22.66894,-23.35224 38.21661,-28.5266 6.44072,-2.14351 11.03834,-2.72166 21.69547,-2.72817 11.9577,-0.007 15.79797,0.63579 24.37957,4.08264 7.67665,3.08337 14.47855,7.31784 23.2717,14.48758 6.16345,5.02555 10.14511,7.68965 11.49266,7.68965 1.24197,0 4.43332,-2.04372 8.27665,-5.30033 5.63693,-4.7764 10.00793,-8.18442 13.15592,-10.25753 7.02356,-4.62538 15.72259,-8.18885 23.78935,-9.74509 9.12547,-1.76048 21.66407,-1.94438 28.4528,-0.4173 4.12433,0.92773 14.13948,4.29034 17.94913,6.02646 3.28043,1.49494 3.2706,1.45181 1.13859,4.9972 -1.81134,3.01213 -2.22668,4.74429 -1.48261,6.18316 1.04307,2.01708 6.02497,7.66503 12.68922,14.38569 7.44984,7.51289 12.73524,12.18564 15.05177,13.30706 1.6503,0.7989 2.62859,0.755 6.14688,-0.27579 0.68918,-0.20192 0.88722,0.0342 1.57884,1.88276 2.58117,6.8988 3.99575,18.89867 3.31014,28.07985 -1.09356,14.64403 -6.3379,28.32298 -14.90792,38.88471 -0.92917,1.14511 -4.03292,4.7274 -6.89722,7.96065 -6.0802,6.86337 -10.0223,11.56871 -11.30973,13.49941 -0.50417,0.7561 -2.80232,3.07081 -5.10699,5.1438 -6.66837,5.99803 -23.10035,21.80083 -49.57329,47.67513 -9.40728,9.19455 -20.65431,20.12561 -24.9934,24.29124 -13.60879,13.06482 -14.67518,13.89496 -17.87072,13.91181 -1.46353,0.008 -1.77098,-0.21577 -6.98088,-5.0741 z m 83.641,-120.41243 c 1.74938,-0.50771 3.06158,-1.85325 7.20766,-7.39078 6.3981,-8.54536 11.41555,-13.67749 19.43701,-19.88127 6.22656,-4.81562 7.92579,-6.33994 9.05864,-8.12627 2.49542,-3.93487 1.08843,-6.16074 -8.50752,-13.45899 -9.25622,-7.03987 -12.46421,-10.24047 -19.26876,-19.22438 -5.28278,-6.97474 -7.3882,-8.86916 -9.85699,-8.86916 -2.70667,0 -3.73031,0.9226 -11.0067,9.92019 -5.30261,6.55694 -10.71852,11.95619 -18.28647,18.23022 -8.42807,6.9871 -9.66082,8.69593 -8.85631,12.27654 0.45321,2.01706 1.90097,3.48377 8.20765,8.31508 9.37764,7.18386 12.22413,9.97107 18.76887,18.378 5.96663,7.66431 7.3061,9.0232 9.74899,9.89037 1.32083,0.46886 1.54707,0.46485 3.35393,-0.0596 z"
             id="path25-2" />
          <path
             style="fill:#efde00;fill-opacity:1;fill-rule:nonzero;stroke:none;stroke-width:0"
             d="m 332.46034,527.22977 -9.30943,-9.67748 9.54459,-9.54459 9.54459,-9.54459 9.55168,9.55168 9.55168,9.55168 -9.15307,9.3979 c -5.03419,5.16885 -9.43827,9.52053 -9.78684,9.6704 -0.34858,0.14987 -4.82301,-4.08238 -9.9432,-9.405 z"
             id="path26-9" />
          <path
             style="fill:#efde00;fill-opacity:1;fill-rule:nonzero;stroke:none;stroke-width:0"
             d="m 382.06589,478.26479 c -3.26859,-3.30306 -5.9429,-6.47315 -5.9429,-7.04465 0,-0.5715 3.04429,-4.05632 6.76508,-7.74404 l 6.76508,-6.70495 6.98453,6.98452 6.98452,6.98453 -6.70494,6.76508 c -3.68773,3.72079 -7.20074,6.76508 -7.80671,6.76508 -0.60597,0 -3.77606,-2.7025 -7.04466,-6.00557 z"
             id="path27-1" />
        </g>
      </g>
    </g>
  </g>
</svg>
